<?xml version="1.0" encoding="utf-8"?>
<!-- Generator: Adobe Illustrator 19.0.0, SVG Export Plug-In . SVG Version: 6.00 Build 0)  -->
<svg version="1.1" id="layer" xmlns="http://www.w3.org/2000/svg" xmlns:xlink="http://www.w3.org/1999/xlink" x="0px" y="0px"
	 viewBox="-153 -46 652 652" style="enable-background:new -153 -46 652 652;" xml:space="preserve">
<style type="text/css">
	.st0{fill-rule:evenodd;clip-rule:evenodd;fill:#009FE3;}
	.st1{fill-rule:evenodd;clip-rule:evenodd;fill:#003865;}
</style>
<g>
	<g>
		<g>
			<g>
				<path class="st0" d="M171.5,242.7c59.8,0,108.2-48.5,108.2-108.3S231.3,26.1,171.5,26.1c-59.8,0-108.3,48.5-108.3,108.3
					S111.7,242.7,171.5,242.7"/>
				<path class="st0" d="M251.4,222.1c-20.6,22.4-57,44.7-103.7,44.7c-36.2,0-67.4-14.1-87.2-29.7c-118.2,12.4-206.1,30-206.1,30
					V315l626.3-0.1l0.1-98.7C480.8,216.2,374,215.5,251.4,222.1"/>
				<path class="st1" d="M-14.8,519.6c-11.2,3.2-27.7,6.4-42.8,6.4c-51.8,0-93.2-28.1-93.2-85.4c0-53.9,43.3-80.8,93.2-80.8
					c16.5,0,26.3,2.1,42.4,5.1v42.3c-9.8-3.2-19.9-6-29.9-6c-25.4,0-44.6,14.1-44.6,40.3c0,27.6,17.8,41.6,42.6,41.6
					c10.9,0,21.4-2.3,32.3-6.2V519.6z"/>
				<path class="st1" d="M126.6,406.6c-13.4-4.8-29.2-8-46.2-8c-9.4,0-25.7,0.2-25.7,10.6c0,21,81.9,1.1,81.9,63.1
					c0,43-41.3,53.9-75.9,53.9c-23,0-41.9-2.3-64.2-7.6v-41.6c16.1,6.9,35.7,10.6,53.5,10.6c14.1,0,26.8-3,26.8-11
					c0-21.6-81.9-2.1-81.9-64.5c0-44.2,44.6-52,80.1-52c16.7,0,35.2,2.1,51.5,5.5V406.6z"/>
				<path class="st1" d="M232.1,487.4c23.6,0,24.3-27.2,24.5-44.4c-0.2-15-1.8-44.4-24.5-44.4c-22.1,0-23.9,29.5-23.9,44.4
					C208.2,460.2,210.7,487.4,232.1,487.4 M232.1,526.1c-54.4,0-86.3-28.3-86.3-83.1c0-53.9,31.9-83.1,86.3-83.1
					c54.4,0,87,29.2,87,83.1C319.1,497.8,286.5,526.1,232.1,526.1"/>
				<path class="st1" d="M390,424.1H405c10.5,0,21.9-3.2,21.9-15.4c0-12-9.8-15.6-20.5-15.6H390V424.1z M390,490.2h15.6
					c10.9,0,22.7-4.1,22.7-16.6c0-13.8-11.1-16.3-22.3-16.3H390V490.2z M333.8,362.7h97.9c27,0,53.5,9,53.5,39.6
					c0,22.1-11.4,33.8-32.1,39.4v0.5c21.6,3,35,20.5,35,36.6c0,40.5-31.7,44.6-64,44.6h-90.3V362.7z"/>
				<path class="st1" d="M-119.9,348.2c0,0,18.8,16.1,47.2,16.3c26.8,0.1,46.7-13.2,57.2-24.5l-4.5-3.5c0,0-13.6,15-39.5,14.8
					c-27.4-0.3-43-19-43-19L-119.9,348.2z"/>
			</g>
		</g>
	</g>
</g>
</svg>
